<?xml version="1.0" encoding="UTF-8" standalone="no"?>
<!-- Created with Inkscape (http://www.inkscape.org/) -->

<svg
   xmlns:dc="http://purl.org/dc/elements/1.1/"
   xmlns:cc="http://creativecommons.org/ns#"
   xmlns:rdf="http://www.w3.org/1999/02/22-rdf-syntax-ns#"
   xmlns:svg="http://www.w3.org/2000/svg"
   xmlns="http://www.w3.org/2000/svg"
   xmlns:sodipodi="http://sodipodi.sourceforge.net/DTD/sodipodi-0.dtd"
   xmlns:inkscape="http://www.inkscape.org/namespaces/inkscape"
   width="210mm"
   height="297mm"
   viewBox="0 0 210 297"
   version="1.1"
   id="svg8"
   inkscape:version="0.92.5 (2060ec1f9f, 2020-04-08)"
   sodipodi:docname="hex_sticker1.svg"
   inkscape:export-filename="/home/dos86jn/floralcurves/inst/extdata/hex_sticker1_baseplot.png"
   inkscape:export-xdpi="300"
   inkscape:export-ydpi="300">
  <defs
     id="defs2" />
  <sodipodi:namedview
     id="base"
     pagecolor="#ffffff"
     bordercolor="#666666"
     borderopacity="1.0"
     inkscape:pageopacity="0.0"
     inkscape:pageshadow="2"
     inkscape:zoom="0.98994949"
     inkscape:cx="263.37642"
     inkscape:cy="706.37919"
     inkscape:document-units="mm"
     inkscape:current-layer="layer1"
     showgrid="false"
     inkscape:window-width="1848"
     inkscape:window-height="1016"
     inkscape:window-x="72"
     inkscape:window-y="27"
     inkscape:window-maximized="1" />
  <metadata
     id="metadata5">
    <rdf:RDF>
      <cc:Work
         rdf:about="">
        <dc:format>image/svg+xml</dc:format>
        <dc:type
           rdf:resource="http://purl.org/dc/dcmitype/StillImage" />
        <dc:title></dc:title>
      </cc:Work>
    </rdf:RDF>
  </metadata>
  <g
     inkscape:label="Layer 1"
     inkscape:groupmode="layer"
     id="layer1">
    <g
       transform="matrix(-0.09764069,0,0,-0.09764069,136.87599,170.77738)"
       inkscape:label="yellow_flower"
       id="g1213">
      <g
         id="g1215">
        <g
           transform="matrix(1,0,0,-1,0,360)"
           id="g1217">
          <path
             inkscape:connector-curvature="0"
             id="path1219"
             style="fill:#bdbdbd;fill-opacity:1;fill-rule:nonzero;stroke:#000000;stroke-width:1.04319096;stroke-linecap:butt;stroke-linejoin:miter;stroke-miterlimit:4;stroke-dasharray:none;stroke-opacity:1"
             d="m 212.949,166.883 c 0,0 27.344,-9.934 -39.738,34.773 -67.063,44.707 -83.828,62.098 -104.941,103.102 -20.493,39.793 -34.149,48.433 -34.149,48.433 l 42.219,-0.617 c 0,0 11.699,-21.613 30.5,-62.269 6.984,-15.082 69.621,-35.293 67.883,-37.012 -1.715,-1.734 28.289,-26.801 28.289,-26.801 l 22.355,-34.765 z" />
        </g>
        <g
           transform="matrix(1,0,0,-1,0,360)"
           id="g1221">
          <path
             inkscape:connector-curvature="0"
             id="path1223"
             style="fill:#f1f1f1;fill-opacity:1;fill-rule:nonzero;stroke:#000000;stroke-width:1.84140396;stroke-linecap:butt;stroke-linejoin:miter;stroke-miterlimit:4;stroke-dasharray:none;stroke-opacity:1"
             d="m 76.766,168.676 c -15.477,-1.543 -10.485,-0.102 -15.477,-1.543 -5.539,-1.59 -10.656,-4.371 -15.496,-7.746 -4.82,-3.383 -8.52,-5.914 -13.168,-12.399 -4.641,-6.48 -3.871,-14.703 -12.391,-27.093 C 11.711,107.5 8.609,110.828 5.531,104.391 3.84,100.891 4.438,96.668 3.988,92.793 3.668,90.215 3.344,87.633 3.191,85.043 2.848,78.094 2.625,71.086 3.191,64.129 3.715,57.875 2.723,50.695 6.301,45.551 8.688,42.125 6.969,39.098 17.156,39.344 35.855,39.816 30.293,17.586 41.145,13.016 48.129,10.707 63.598,8.375 69.039,9.914 c 14.059,9.836 17.043,12.809 37.16,9.313 5.711,-1.067 10.481,-6.086 16.266,-6.211 10.605,-0.223 20.914,3.101 30.203,10.082 9.289,6.957 6.98,10.832 14.73,18.582 7.719,7.75 11.598,9.289 11.598,13.929 0,4.649 0.77,-11.621 0,6.215 -0.769,17.809 -1.539,5.41 -0.769,23.219 0.769,17.809 2.062,15.598 0.769,23.227 -0.469,2.882 -0.973,6.207 -3.129,8.171 -4.297,3.871 -8.125,1.016 -16.765,4.59 -12.743,5.293 -5.664,1.965 -18.059,8.922 -12.367,6.977 -10.801,11.973 -17.039,17.035 -6.926,5.664 -17.012,14.731 -22.453,14.731 -5.41,0 -19.621,7.48 -24.785,6.957 z" />
        </g>
        <g
           transform="matrix(1,0,0,-1,0,360)"
           id="g1225">
          <path
             inkscape:connector-curvature="0"
             id="path1227"
             style="fill:#f1f1f1;fill-opacity:1;fill-rule:nonzero;stroke:#000000;stroke-width:1.83999205;stroke-linecap:butt;stroke-linejoin:miter;stroke-miterlimit:4;stroke-dasharray:none;stroke-opacity:1"
             d="m 175.914,150.098 c -18.777,-7.649 -14.754,-5.84 -23.246,-6.188 -6.957,-0.301 -13.387,5.266 -20.145,7.727 -5.886,2.187 -11.921,3.972 -17.808,6.203 -3.129,1.195 -6.156,3.683 -9.285,3.879 -2.684,0.172 -5.168,1.566 -7.75,2.308 -6.188,1.84 -12.547,3.18 -18.582,5.446 -3.45,1.289 -6.801,2.879 -10.059,4.64 -3.477,1.864 -7.348,3.332 -10.082,6.188 -4.051,4.269 -5.641,10.332 -8.519,15.492 -2.286,4.152 -5.762,7.805 -6.958,12.395 -0.796,2.98 -0.222,6.187 0,9.289 0.125,1.82 0.204,3.683 0.77,5.418 1.887,5.835 5.492,10.929 8.52,16.269 2.683,4.746 4.894,9.883 8.519,13.934 1.965,2.187 4.649,3.625 6.981,5.418 4.371,3.375 8.89,6.554 13.164,10.078 4.793,3.953 9.16,8.371 13.929,12.398 3.778,3.18 7.43,6.606 11.629,9.289 2.406,1.539 5.567,1.957 7.723,3.871 2.109,1.84 2.629,5.043 4.644,6.957 4.371,4.172 10.036,6.754 15.496,9.289 5.692,2.684 11.555,5.563 17.813,6.207 3.894,0.399 7.996,-0.07 11.621,-1.539 4.77,-1.964 8.324,-6.109 12.399,-9.316 4.472,-3.504 8.07,-8.27 13.164,-10.828 1.886,-0.965 4.07,-1.641 6.187,-1.563 6.527,0.274 12.094,5.539 18.598,6.211 4.398,0.446 9.39,0.77 13.168,-1.543 9.187,-5.687 12.418,-17.761 17.804,-27.121 4.024,-7.008 9.192,-13.758 10.832,-21.679 1.063,-5.043 0.02,-10.387 -0.773,-15.477 -0.617,-3.977 -1.02,-8.199 -3.106,-11.625 -2.355,-3.922 -6.527,-6.383 -10.058,-9.289 -5.684,-4.719 -11.723,-8.992 -17.809,-13.164 -6.308,-4.348 -12.89,-8.297 -19.375,-12.399 -4.093,-2.605 -9.734,-3.648 -12.367,-7.742 -3.254,-5.043 -0.324,-12.172 -2.332,-17.812 -1.316,-3.727 -2.933,-7.844 -6.187,-10.082 -2.383,-1.617 -5.266,-0.223 -8.52,-1.539 z" />
        </g>
        <g
           transform="matrix(1,0,0,-1,0,360)"
           id="g1229">
          <path
             inkscape:connector-curvature="0"
             id="path1231"
             style="fill:#f1f1f1;fill-opacity:1;fill-rule:nonzero;stroke:#000000;stroke-width:1.83999205;stroke-linecap:butt;stroke-linejoin:miter;stroke-miterlimit:4;stroke-dasharray:none;stroke-opacity:1"
             d="m 258.777,239.164 c 7.051,2.559 12.664,9.41 20.141,10.063 7.227,0.64 14.086,-3.684 20.891,-6.188 9.562,-3.531 22.597,-3.703 27.894,-12.394 4.418,-7.305 -4.574,-17.586 -1.547,-25.559 1.145,-3.078 4.547,-4.746 6.957,-6.977 7.973,-7.304 19.621,-11.402 24.793,-20.918 1.981,-3.652 2.727,-8.394 1.535,-12.367 -1.937,-6.508 -8.398,-10.683 -13.168,-15.496 -3.597,-3.656 -8.589,-5.941 -11.597,-10.058 -2.332,-3.18 -3.571,-7.086 -4.664,-10.856 -1.367,-4.769 -1.914,-9.766 -2.309,-14.707 -0.426,-5.41 0.719,-10.906 0,-16.269 -0.648,-4.79 -2.187,-9.438 -3.879,-13.934 -2.734,-7.254 -4.344,-15.723 -10.058,-20.91 -3.875,-3.532 -9.59,-4.395 -14.727,-5.438 -5.812,-1.172 -12.051,-2.265 -17.812,-0.777 -9.09,2.367 -17.809,11.699 -23.997,14.734 -6.203,3.028 -8.144,2.11 -12.39,4.641 -4.25,2.535 -8.496,6.98 -12.395,10.828 -4.691,4.648 -8.246,10.359 -13.16,14.734 -2.359,2.082 -5.515,3.204 -7.754,5.411 -5.664,5.589 -8.886,13.238 -13.929,19.375 -3.852,4.644 -9.391,7.921 -12.399,13.168 -1.344,2.332 -2.207,5.039 -2.332,7.718 -0.25,5.27 1.785,10.407 3.102,15.5 1.269,4.992 2.16,10.207 4.648,14.703 3.078,5.637 9.363,9.067 12.391,14.731 3.058,5.683 2.215,12.992 5.418,18.578 3.375,5.863 8.59,10.609 13.933,14.727 5.141,3.925 11.004,6.957 17.039,9.293 6.207,2.382 13.137,2.355 19.375,4.644 z" />
        </g>
        <g
           transform="matrix(1,0,0,-1,0,360)"
           id="g1233">
          <path
             inkscape:connector-curvature="0"
             id="path1235"
             style="fill:#f7d302;fill-opacity:1;fill-rule:nonzero;stroke:#000000;stroke-width:1.83999205;stroke-linecap:butt;stroke-linejoin:miter;stroke-miterlimit:4;stroke-dasharray:none;stroke-opacity:1"
             d="m 150.359,121.434 -10.086,-15.477 c 0,0 -6.433,-9.137 -3.23,-10.855 3.977,-2.11 13.066,8.347 13.066,8.347 l 11.496,8.696 -16.691,-23.993 c 0,0 -2.75,-7.929 0,-9.289 3.481,-1.742 9.316,6.949 9.316,6.949 l -5.835,-16.117 c 0,0 -2.411,-6.207 -0.372,-7.871 1.59,-1.316 4.344,1.965 6.063,3.551 4.691,4.344 10.973,15.797 10.973,15.797 l 1.546,-10.059 c 0,0 2.411,-5.343 4.641,-6.984 1.539,-1.094 3.18,-2.75 3.801,-1.535 1.344,2.629 1.641,13.16 1.641,13.16 0,0 0.839,-12.992 4.644,-17.805 1.117,-1.441 4.914,16.539 6.555,15.524 1.015,-0.649 -0.918,-6.461 -0.848,-11.7 0.027,-1.984 -1.316,-6.234 0.324,-6.66 1.641,-0.394 2.785,3.282 3.129,5.539 0.574,3.528 2.711,6.856 3.258,6.907 0.844,0.074 -2.012,-13.164 2.582,-13.539 2.016,-0.172 0.598,3.085 2.082,5.691 2.836,5.043 3.828,16.043 3.828,16.043 l 10.828,-7.922 c 0,0 4.25,-5.512 6.985,-7.574 2.308,-1.742 4.843,-3.949 7.75,-3.879 2.058,0.078 4.742,1.144 5.41,3.109 1.992,5.813 -8.887,15.95 -8.887,15.95 l 10.152,-9.02 c 0,0 5.043,-2.406 6.485,-0.793 4.422,4.965 -6.008,16.145 -6.008,16.145 l -3.801,8.066 c 0,0 11.52,-3.973 14.453,-0.145 1.145,1.489 -1.566,5.411 -1.566,5.411 0,0 6.289,-1.735 8.519,0 1.692,1.316 2.239,4.179 1.567,6.214 -0.617,1.864 -4.691,3.426 -7.18,5.039 -4.246,2.735 -7.547,7.207 -7.547,7.207 4.641,4.469 16.266,-4.523 16.266,-2.957 0,0 -2.207,4.297 -3.703,6.18 -2.504,3.203 -20.117,10.289 -20.117,10.289 0,0 16.793,-0.101 16.871,2.11 0.023,1.66 -18.008,3.871 -18.008,3.871 l 22.648,0.769 c 0,0 7.008,-2.879 9.289,-0.769 1.887,1.761 -4.023,5.59 -6.707,7.601 -3.976,2.981 -9.336,4.219 -14.257,4.696 -2.11,0.222 -5.368,0.097 -5.368,0.097 l -13.16,-0.769 -6.207,0.769 c 0,0 6.156,6.11 10.059,7.75 2.43,1.02 5.242,0.746 7.847,1.145 4.348,0.617 9.411,-0.496 13.067,1.957 1.266,0.82 2.43,2.359 2.336,3.855 -0.223,3.301 -6.113,4.094 -9.617,4.617 -3.254,0.477 -9.758,-1.515 -9.758,-1.515 l -13.934,-5.418 h -9.289 c 0,0 10.504,7.777 13.934,13.168 0.894,1.367 1.562,4.644 1.562,4.644 0,0 2.016,6.16 0,7.75 -3.375,2.606 -12.023,-9.886 -12.023,-9.886 0,0 -2.035,-4.446 -3.473,-6.383 -3.058,-4.098 -13.363,-12.59 -13.363,-12.59 0,0 2.879,11.922 0.965,16.465 -0.793,1.863 -2.035,3.797 -3.871,4.644 -2.336,1.094 -1.668,1.246 -3.481,-0.574 -2.555,-2.555 -4.269,-10.254 -4.269,-10.254 l -2.309,-9.683 c 0,0 -6.41,12.539 -12.394,15.097 -3.102,1.317 -7.778,1.688 -10.059,-0.765 -2.289,-2.489 3.027,-7.926 4.246,-11.059 1.813,-4.59 5.813,-9.855 5.813,-9.855 0,0 -9.54,0.668 -13.938,2.308 -3.699,1.391 -6.129,6.133 -10.086,6.203 -4.144,0.051 -10.828,-2.031 -10.828,-6.203 0,-2.062 5.418,-3.086 5.418,-3.086 l 12.394,-6.203 c 0,0 -18.906,-0.027 -24.785,-6.187 -1.316,-5.739 0.469,-5.071 3.102,-6.977 4.871,-1.863 26.332,-1.543 26.332,-1.543 z" />
        </g>
      </g>
    </g>
    <g
       transform="matrix(0.08267397,0,0,-0.08267397,78.959189,151.6399)"
       inkscape:label="pollen_forager"
       id="g1136">
      <g
         id="g1138">
        <path
           inkscape:connector-curvature="0"
           id="path1140"
           style="fill:#b4b4b4;fill-opacity:1;fill-rule:nonzero;stroke:#000000;stroke-width:5.25330782;stroke-linecap:butt;stroke-linejoin:miter;stroke-miterlimit:4;stroke-dasharray:none;stroke-opacity:1"
           d="m 175.598,175.419 c 0,0 -8.766,10.554 -18.145,11.726 -9.383,1.172 -14.07,-2.343 -22.281,-5.863 -8.207,-3.516 -26.969,-17.59 -30.488,-19.934 C 101.168,159.005 84.75,140.243 84.75,140.243 67.367,126.719 53.387,106.372 44.883,92.165 39.168,82.618 40.629,77.395 39.02,69.884 37.523,62.911 36.09,55.887 35.5,48.778 34.824,40.598 34.289,32.27 35.5,24.153 36.531,17.274 34.566,7.719 41.602,4.2 54.34,1.063 60.516,2.93 66.871,5.606 c 10.305,4.336 18.961,6.817 33.125,23.238 6.543,7.586 18.078,23.958 23.449,30.489 10.758,13.066 21.055,17.445 32.836,25.797 15.582,7.968 42.5,17.843 44.559,22.277 6.582,14.195 4.691,19.937 4.691,19.937 l -4.691,12.899 -16.488,22.562 z" />
        <path
           inkscape:connector-curvature="0"
           id="path1142"
           style="fill:#b4b4b4;fill-opacity:1;fill-rule:nonzero;stroke:#000000;stroke-width:5.25330782;stroke-linecap:butt;stroke-linejoin:miter;stroke-miterlimit:4;stroke-dasharray:none;stroke-opacity:1"
           d="m 278.23,214.118 c 0,0 -5.863,4.687 -12.898,8.207 -7.035,3.516 -19.934,5.863 -32.832,3.516 -12.898,-2.344 -21.105,-3.516 -38.695,-15.243 -17.59,-11.726 -23.453,-19.933 -23.453,-19.933 l 10.898,-14.973 c 0,0 8.68,-14.402 16.891,-22.609 8.207,-8.211 16.769,-26.914 30.839,-28.086 14.075,-1.172 22.282,-5.863 28.145,-1.172 5.863,4.691 15.242,15.242 15.242,15.242 0,0 5.863,-4.687 1.176,10.555 -4.691,15.246 -5.863,21.109 -4.691,30.488 1.171,9.383 7.035,23.453 7.035,23.453 z" />
        <path
           inkscape:connector-curvature="0"
           id="path1144"
           style="fill:#6d6d6d;fill-opacity:1;fill-rule:nonzero;stroke:#000000;stroke-width:5.25330782;stroke-linecap:butt;stroke-linejoin:miter;stroke-miterlimit:4;stroke-dasharray:none;stroke-opacity:1"
           d="m 284.094,144.93 c 0,0 -4.102,4.399 -8.207,9.383 -4.692,12.899 -7.035,2.344 -4.692,15.242 2.348,12.899 1.45,20.2 4.692,26.973 2.804,5.863 0.961,12.488 5.992,18.215 5.863,4.691 9.418,4.234 15.043,3.851 4.918,-0.335 6,-1.042 13.312,-6.214 7.481,-5.286 5.309,-2.953 10.071,-16.539 5.175,-14.766 3.66,-39.184 3.66,-47.391 0,-8.207 -3.227,-15.242 -7.914,-17.59 -7.656,-0.242 -9.985,1.383 -16.805,4.406 -8.359,3.703 -12.551,5.735 -15.152,9.664 z" />
        <path
           inkscape:connector-curvature="0"
           id="path1146"
           style="fill:#474747;fill-opacity:1;fill-rule:nonzero;stroke:none"
           d="m 105.594,149.29 c 5.586,-9.735 9.234,-29.61 13.258,-32.801 4.144,-3.316 10.777,-9.121 14.925,-9.949 4.145,-0.828 6.649,-1.672 11.625,-3.328 4.973,-1.66 -3.734,5.746 -6.129,9.289 -2.093,3.093 -3.148,1.468 -7.148,10.617 -3.984,9.117 -0.836,5.809 -4.98,15.758 -4.149,9.953 -0.829,9.953 -4.149,17.414 -3.316,7.461 -1.621,14.492 -4.156,11.609 -10.547,-6.34 -11.61,-6.867 -13.246,-18.609 z" />
        <path
           inkscape:connector-curvature="0"
           id="path1148"
           style="fill:#e7e7e7;fill-opacity:0.47115401;fill-rule:nonzero;stroke:none"
           d="m 201.09,168.88 -19.899,-4.977 c 0,0 -14.097,-5.805 -29.851,-7.461 -29.305,-1.676 -29.051,-4.719 -47.262,-0.832 -26.531,5.805 -15.754,0 -30.68,9.121 -14.921,9.121 -18.238,9.949 -22.386,19.071 -8.317,17.101 -4.438,15.511 4.148,18.242 17.563,2.113 38.715,-0.473 49.539,-2.696 12.438,-0.828 24.254,-6.425 39.18,-9.742 14.926,-3.316 32.336,-9.949 38.973,-11.605 6.632,-1.66 23.214,-3.321 23.214,-3.321 z" />
        <path
           inkscape:connector-curvature="0"
           id="path1150"
           style="fill:none;stroke:#545454;stroke-width:1.31332695;stroke-linecap:butt;stroke-linejoin:miter;stroke-miterlimit:4;stroke-dasharray:none;stroke-opacity:1"
           d="m 201.09,168.88 -19.899,-4.977 c 0,0 -14.097,-5.805 -29.851,-7.461 -29.305,-1.676 -29.051,-4.719 -47.262,-0.832 -26.531,5.805 -15.754,0 -30.68,9.121 -14.921,9.121 -18.238,9.949 -22.386,19.071 -8.317,17.101 -4.438,15.511 4.148,18.242 17.563,2.113 38.715,-0.473 49.539,-2.696 12.438,-0.828 24.254,-6.425 39.18,-9.742 14.926,-3.316 32.336,-9.949 38.973,-11.605 6.632,-1.66 23.214,-3.321 23.214,-3.321 z" />
        <path
           inkscape:connector-curvature="0"
           id="path1152"
           style="fill:#e7e7e7;fill-opacity:0.47115401;fill-rule:nonzero;stroke:none"
           d="m 210.211,222.567 -31.508,23.426 -33.996,26.531 -19.07,14.098 c 0,0 -9.949,7.461 -15.754,11.605 -5.805,4.149 -8.293,6.633 -18.242,11.61 -9.95,4.976 -25.703,9.121 -27.36,10.777 -1.66,1.66 -9.984,2.664 -16.586,3.32 -11.363,1.125 -15.461,-1.179 -17.41,-1.66 -5.805,-6.633 -9.953,-8.293 -7.465,-19.898 2.489,-11.61 7.352,-18.996 12.852,-27.364 4.863,-7.394 9.984,-15.808 17.828,-19.902 9.324,-4.863 28.191,-10.363 28.191,-10.363 l 42.289,-14.512 25.704,-5.801 29.019,-4.148 22.387,-2.484 z" />
        <path
           inkscape:connector-curvature="0"
           id="path1154"
           style="fill:none;stroke:#545454;stroke-width:1.31332695;stroke-linecap:butt;stroke-linejoin:miter;stroke-miterlimit:4;stroke-dasharray:none;stroke-opacity:1"
           d="m 210.211,222.567 -31.508,23.426 -33.996,26.531 -19.07,14.098 c 0,0 -9.949,7.461 -15.754,11.605 -5.805,4.149 -8.293,6.633 -18.242,11.61 -9.95,4.976 -25.703,9.121 -27.36,10.777 -1.66,1.66 -9.984,2.664 -16.586,3.32 -11.363,1.125 -15.461,-1.179 -17.41,-1.66 -5.805,-6.633 -9.953,-8.293 -7.465,-19.898 2.489,-11.61 7.352,-18.996 12.852,-27.364 4.863,-7.394 9.984,-15.808 17.828,-19.902 9.324,-4.863 28.191,-10.363 28.191,-10.363 l 42.289,-14.512 25.704,-5.801 29.019,-4.148 22.387,-2.484 z" />
        <path
           inkscape:connector-curvature="0"
           id="path1156"
           style="fill:#e7e7e7;fill-opacity:0.47115401;fill-rule:nonzero;stroke:none"
           d="m 41.062,195.411 c -8.343,0.562 -13.992,9.43 -19.691,15.547 -7.121,7.644 -17.621,25.914 -17.621,25.914 -5.73,12.867 -1.762,21.855 -1.66,23.215 9.121,7.461 14.098,7.461 20.73,7.461 6.633,0 14.098,0 19.071,-2.485 4.976,-2.488 87.89,-35.656 101.16,-43.117 13.265,-7.465 26.531,-18.242 26.531,-18.242 l 34.824,-21.559 2.489,-7.461 -23.215,4.145 c 0,0 -97.215,13.543 -142.618,16.582 z" />
        <path
           inkscape:connector-curvature="0"
           id="path1158"
           style="fill:none;stroke:#545454;stroke-width:1.31332695;stroke-linecap:butt;stroke-linejoin:miter;stroke-miterlimit:4;stroke-dasharray:none;stroke-opacity:1"
           d="m 41.062,195.411 c -8.343,0.562 -13.992,9.43 -19.691,15.547 -7.121,7.644 -17.621,25.914 -17.621,25.914 -5.73,12.867 -1.762,21.855 -1.66,23.215 9.121,7.461 14.098,7.461 20.73,7.461 6.633,0 14.098,0 19.071,-2.485 4.976,-2.488 87.89,-35.656 101.16,-43.117 13.265,-7.465 26.531,-18.242 26.531,-18.242 l 34.824,-21.559 2.489,-7.461 -23.215,4.145 c 0,0 -97.215,13.543 -142.618,16.582 z" />
        <path
           inkscape:connector-curvature="0"
           id="path1160"
           style="fill:#e7e7e7;fill-opacity:0.47115401;fill-rule:nonzero;stroke:none"
           d="m 194.664,214.481 c 0,0 -15.812,-1.703 -23.836,-2.277 -11.082,-0.797 -18.656,-2.695 -32.754,-0.207 -14.094,2.484 -36.062,1.988 -52.238,9.121 -7.027,3.098 -13.195,8.297 -18.238,14.094 -4.391,5.043 -10.289,10.734 -9.953,17.414 0.121,2.375 1.898,5.031 4.148,5.801 45.258,15.558 137.641,-40.836 137.641,-40.836 z" />
        <path
           inkscape:connector-curvature="0"
           id="path1162"
           style="fill:none;stroke:#545454;stroke-width:1.31332695;stroke-linecap:butt;stroke-linejoin:miter;stroke-miterlimit:4;stroke-dasharray:none;stroke-opacity:1"
           d="m 194.664,214.481 c 0,0 -15.812,-1.703 -23.836,-2.277 -11.082,-0.797 -18.656,-2.695 -32.754,-0.207 -14.094,2.484 -36.062,1.988 -52.238,9.121 -7.027,3.098 -13.195,8.297 -18.238,14.094 -4.391,5.043 -10.289,10.734 -9.953,17.414 0.121,2.375 1.898,5.031 4.148,5.801 45.258,15.558 137.641,-40.836 137.641,-40.836 z" />
        <path
           inkscape:connector-curvature="0"
           id="path1164"
           style="fill:#737373;fill-opacity:1;fill-rule:nonzero;stroke:#000000;stroke-width:5.25330782;stroke-linecap:butt;stroke-linejoin:miter;stroke-miterlimit:4;stroke-dasharray:none;stroke-opacity:1"
           d="m 274.715,137.895 16.418,-26.968 V 64.02 l -3.52,-9.379 -2.343,4.692 v 29.312 l -3.52,14.074 -7.035,14.071 -9.969,12.312 z" />
        <path
           inkscape:connector-curvature="0"
           id="path1166"
           style="fill:#737373;fill-opacity:1;fill-rule:nonzero;stroke:#000000;stroke-width:5.25330782;stroke-linecap:butt;stroke-linejoin:miter;stroke-miterlimit:4;stroke-dasharray:none;stroke-opacity:1"
           d="m 233.672,121.481 -7.035,-17.59 -14.071,-17.589 -11.726,-21.106 1.172,-9.383 12.898,-4.691 11.727,-9.379 19.933,-17.59 -2.343,-5.863 -18.762,11.726 -16.418,14.071 -21.106,7.035 1.172,11.726 8.207,21.11 11.727,14.07 11.726,12.899 3.52,11.726 z" />
        <path
           inkscape:connector-curvature="0"
           id="path1168"
           style="fill:#737373;fill-opacity:1;fill-rule:nonzero;stroke:#000000;stroke-width:5.25330782;stroke-linecap:butt;stroke-linejoin:miter;stroke-miterlimit:4;stroke-dasharray:none;stroke-opacity:1"
           d="m 191.457,87.473 -14.07,-8.207 -9.379,-4.691 -4.692,-3.516 -5.863,-4.691 16.418,-8.211 11.723,-7.035 22.281,-14.07 14.07,-10.555 11.727,-8.207 9.383,-4.692 -4.692,-3.515 -42.215,24.625 c -16.984,6.211 -15.945,10.004 -25.121,15.25 -7.132,4.078 -25.3,0.851 -25.3,21.101 l 5.863,5.86 30.488,16.418 11.727,4.691 z" />
        <path
           inkscape:connector-curvature="0"
           id="path1170"
           style="fill:#f7df02;fill-opacity:1;fill-rule:nonzero;stroke:#000000;stroke-width:5.25330782;stroke-linecap:butt;stroke-linejoin:miter;stroke-miterlimit:4;stroke-dasharray:none;stroke-opacity:1"
           d="m 205.531,37.052 c 0,0 1.172,-11.727 -2.347,-18.762 -3.516,-7.035 -4.688,-9.383 -10.551,-11.727 -5.863,-2.344 -7.039,-4.691 -14.074,-3.515 -7.036,1.171 -5.864,1.171 -12.899,4.687 -7.035,3.52 -15.242,11.727 -15.242,16.418 0,4.691 -1.172,14.07 0,21.106 1.172,7.035 1.172,11.726 4.691,11.726 3.516,0 22.278,-4.691 22.278,-4.691 z" />
        <path
           inkscape:connector-curvature="0"
           id="path1172"
           style="fill:#323232;fill-opacity:1;fill-rule:nonzero;stroke:#060000;stroke-width:2.62665391;stroke-linecap:butt;stroke-linejoin:miter;stroke-miterlimit:4;stroke-dasharray:none;stroke-opacity:1"
           d="m 297.582,206.641 c 6.359,-4.55 11.137,-8.941 14.656,-18.324 3.516,-9.379 3.516,-21.105 3.516,-21.105 0,0 1.176,-11.727 -4.688,-14.071 -5.863,-2.347 -14.738,0.262 -19.933,4.692 -5.473,4.66 -7.129,12.828 -8.211,19.933 -1.164,7.661 -0.856,15.735 2.055,23.157 0.734,1.879 2.57,4.242 4.183,5.453 1.188,0.89 4.422,1.23 5.906,1.168 0.887,-0.039 1.789,-0.383 2.516,-0.903 z" />
        <path
           inkscape:connector-curvature="0"
           id="path1174"
           style="fill:#474747;fill-opacity:1;fill-rule:nonzero;stroke:none"
           d="m 83.352,131.567 c 0,-11.609 -0.832,-10.781 3.316,-19.07 4.144,-8.293 5.805,-14.926 9.949,-18.242 4.145,-3.317 10.778,-9.121 14.926,-9.95 4.145,-0.828 13.266,-6.632 18.242,-8.293 4.973,-1.656 -2.488,9.95 -2.488,9.95 0,0 -7.465,5.804 -14.098,13.269 -6.633,7.461 -4.144,7.461 -8.289,17.41 -4.148,9.95 -0.832,9.95 -4.148,17.414 -3.317,7.461 -9.121,11.606 -9.121,11.606 -9.782,-11.129 -5.329,-8.414 -8.289,-14.094 z" />
        <path
           inkscape:connector-curvature="0"
           id="path1176"
           style="fill:#474747;fill-opacity:1;fill-rule:nonzero;stroke:none"
           d="m 60.961,109.18 c -2.484,-10.781 -4.145,-9.949 -2.484,-15.753 1.656,-5.805 4.144,-8.293 9.949,-15.754 5.804,-7.465 12.437,-15.754 17.41,-18.243 4.976,-2.488 7.465,-4.976 14.926,-6.632 7.465,-1.661 7.465,-2.489 9.121,0.828 0.879,5.179 -4.02,13.41 -6.633,16.582 -11.609,14.097 -10.777,14.926 -18.242,19.898 -7.461,4.977 -7.711,2.125 -9.121,5.805 -1.633,4.269 0.832,-3.317 -3.317,9.121 -4.144,12.437 -5.804,14.926 -5.804,14.926 z" />
        <path
           inkscape:connector-curvature="0"
           id="path1178"
           style="fill:#474747;fill-opacity:1;fill-rule:nonzero;stroke:none"
           d="m 43.125,74.575 c 0,0 -1.176,3.519 0,-4.691 1.172,-8.207 1.172,-12.899 4.687,-17 3.52,-4.106 4.106,-7.625 11.727,-12.899 7.621,-5.277 24.625,-7.625 24.625,-7.625 h 14.07 l 0.586,4.692 c 0,0 -11.726,7.621 -16.414,9.382 -4.691,1.758 -8.211,2.93 -15.832,7.621 -7.621,4.692 -11.726,6.45 -13.484,11.141 -1.758,4.688 -1.172,6.449 -2.344,12.313 -1.176,5.863 -1.762,12.898 -1.762,12.898 l -1.172,1.758 z" />
        <path
           inkscape:connector-curvature="0"
           id="path1180"
           style="fill:#353535;fill-opacity:1;fill-rule:nonzero;stroke:#000000;stroke-width:1.35454297;stroke-linecap:butt;stroke-linejoin:miter;stroke-miterlimit:4;stroke-dasharray:none;stroke-opacity:1"
           d="m 319.156,165.833 14.254,9.691 18.813,-27.363 c 0,0 3.879,-2.363 5.132,-1.141 1.184,1.153 -0.941,4.864 -0.941,4.864 l -19.984,26.996 -3.922,0.433 -13.637,-11.484 z" />
      </g>
    </g>
    <path
       style="fill:none;stroke:#000000;stroke-width:1.05683637;stroke-linecap:butt;stroke-linejoin:miter;stroke-miterlimit:4;stroke-dasharray:none;stroke-opacity:1"
       d="m 58.576151,127.81987 c 12.072845,0.0398 19.944938,-30.893577 31.488031,-37.796194 3.520843,-1.21951 6.878192,2.888095 9.304562,2.591472 10.554656,-4.57682 7.494666,-25.596801 18.922966,-24.83304 10.35599,0.692097 13.62727,57.027302 48.48268,61.174492"
       id="path1249"
       inkscape:connector-curvature="0"
       sodipodi:nodetypes="cccsc" />
  </g>
</svg>
